<svg viewBox="0 0 375 162" fill="none" xmlns="http://www.w3.org/2000/svg">
<path d="M115.38 95.4531C115.309 95.9375 115.255 96.3008 115.219 96.543C115.161 96.9453 115.114 97.25 115.087 97.4492C114.755 99.707 114.333 101.48 113.821 102.77C111.915 108.051 107.614 110.691 100.926 110.691C98.5084 110.691 96.5983 110.531 95.192 110.207C93.7897 109.887 92.6061 109.16 91.6452 108.031C90.4694 106.699 89.8405 105.168 89.7506 103.437C89.6608 101.703 89.8717 99.125 90.3756 95.6992L92.5944 80.6445C93.1998 76.5352 94.7233 73.5195 97.1608 71.6055C99.5983 69.6914 102.876 68.7344 106.985 68.7344C109.442 68.7344 111.368 68.9453 112.755 69.3672C114.141 69.7891 115.29 70.6172 116.2 71.8477C117.106 73.0781 117.614 74.6992 117.719 76.7148C117.786 78.1641 117.618 80.2812 117.208 83.0625L116.887 85.2383H106.61L107.411 79.7969C107.477 79.3555 107.528 79.0117 107.563 78.7695C107.743 77.5586 107.825 76.8555 107.813 76.6523C107.758 75.6445 107.251 75.1406 106.282 75.1406C104.911 75.1406 104.098 76.0078 103.844 77.7422L100.399 101.141C100.083 103.277 100.59 104.344 101.922 104.344C102.77 104.344 103.344 104 103.645 103.316C103.946 102.633 104.255 101.242 104.563 99.1445L105.337 93.8828H115.614L115.383 95.4531H115.38Z" fill="#EA1C3D"/>
<path d="M137.164 110.504H127.793L131.328 86.5039C131.543 85.0547 131.668 83.9258 131.707 83.1172C131.746 82.3125 131.379 81.9062 130.617 81.9062C130.012 81.9062 129.562 82.2188 129.27 82.8438C128.977 83.4688 128.715 84.5664 128.48 86.1367L124.895 110.5H115.582L121.707 68.9062H131.02L129.648 78.2188C130.563 77.4922 131.438 77.0078 132.281 76.7695C133.121 76.5273 134.188 76.4063 135.48 76.4063C136.852 76.4063 138.02 76.6172 138.984 77.043C139.949 77.4688 140.605 78.1406 140.953 79.0664C141.211 79.793 141.293 80.7891 141.207 82.0586C141.121 83.3281 140.93 84.9727 140.633 86.9844L137.168 110.504H137.164Z" fill="#EA1C3D"/>
<path d="M161.348 110.504H152.219L152.665 107.48C151.887 108.648 151.075 109.457 150.223 109.898C149.372 110.344 148.2 110.562 146.711 110.562C145.422 110.562 144.329 110.391 143.43 110.047C142.532 109.703 141.938 109.172 141.641 108.445C141.344 107.719 141.184 106.883 141.165 105.938C141.141 104.992 141.211 103.973 141.372 102.883L141.782 100.102C142.145 97.6445 142.684 95.9609 143.403 95.0547C144.122 94.1484 145.68 93.1914 148.086 92.1836L153.114 90.0664C153.891 89.7031 154.45 89.2695 154.786 88.7656C155.122 88.2617 155.383 87.3867 155.567 86.1367C155.989 83.2773 155.715 81.8437 154.747 81.8437C154.262 81.8437 153.856 82.0039 153.528 82.3281C153.2 82.6523 152.95 83.375 152.786 84.5039L152.208 88.4336H143.5L143.661 87.3438C143.981 85.168 144.407 83.4336 144.942 82.1445C145.473 80.8555 146.407 79.6445 147.743 78.5156C148.754 77.668 149.848 77.1445 151.028 76.9453C152.208 76.7422 153.782 76.6445 155.758 76.6445C158.137 76.6445 160.012 76.8477 161.383 77.25C162.754 77.6523 163.731 78.418 164.309 79.5469C164.887 80.6758 165.114 82.2266 164.985 84.2031C164.856 86.1797 164.485 89.2422 163.872 93.3945L161.352 110.504H161.348ZM153.09 102.949L154.364 94.3047C152.915 95.3945 152.008 96.1992 151.649 96.7227C151.079 97.5703 150.657 98.9414 150.379 100.832C150.266 101.598 150.157 102.344 150.051 103.07C149.977 104.398 150.422 105.066 151.391 105.066C152.36 105.066 152.887 104.363 153.094 102.949H153.09Z" fill="#EA1C3D"/>
<path d="M188.082 100.168C187.547 103.797 186.879 106.297 186.07 107.664C184.887 109.68 182.906 110.687 180.125 110.687C178.836 110.687 177.781 110.457 176.965 109.992C176.145 109.531 175.418 108.715 174.785 107.543L173.629 115.402H164.316L170.059 76.4063H179.609L178.922 79.4297C179.852 78.3008 180.848 77.5039 181.902 77.043C182.957 76.582 184.129 76.3477 185.422 76.3477C186.551 76.3477 187.523 76.5195 188.34 76.8594C189.156 77.2031 189.758 77.7773 190.141 78.582C190.523 79.3867 190.707 80.2852 190.684 81.2734C190.66 82.2617 190.5 83.7617 190.203 85.7773L188.086 100.168H188.082ZM178.301 102.523L180.687 86.3203C180.816 85.4336 180.91 84.8086 180.965 84.4453C181.09 83.5977 181.145 82.9531 181.129 82.5117C181.113 82.0664 180.762 81.8477 180.078 81.8477C179.07 81.8477 178.426 82.8164 178.141 84.75L175.531 102.465C175.277 104.199 175.652 105.066 176.66 105.066C177.184 105.066 177.559 104.855 177.781 104.43C178.004 104.008 178.18 103.371 178.305 102.523H178.301Z" fill="#EA1C3D"/>
<path d="M204.09 110.504H200.34C198.082 110.504 196.566 110.402 195.789 110.203C194.351 109.84 193.371 108.973 192.847 107.602C192.676 107.117 192.648 106.223 192.762 104.91C192.875 103.602 193.078 101.938 193.375 99.9219L195.922 82.6328H193.926L194.719 77.25H196.715L197.515 71.8086H206.945L206.144 77.25H208.625L207.832 82.6328H205.351L202.672 100.832C202.351 103.008 202.265 104.258 202.422 104.582C202.574 104.906 203.398 105.066 204.89 105.066L204.09 110.508V110.504Z" fill="#EA1C3D"/>
<path d="M229.709 98.7148C229.638 99.1992 229.584 99.5625 229.548 99.8047C229.31 101.418 229.021 102.695 228.681 103.645C228.341 104.594 227.677 105.668 226.693 106.879C225.552 108.328 224.349 109.309 223.087 109.812C221.826 110.316 220.146 110.566 218.048 110.566C215.306 110.566 213.138 110.094 211.548 109.145C209.955 108.199 208.97 106.676 208.591 104.582C208.404 103.656 208.392 102.508 208.556 101.137C208.716 99.7656 208.845 98.7578 208.943 98.1133L210.404 88.1992C210.611 86.7891 210.841 85.5781 211.087 84.5703C211.337 83.5625 211.713 82.5742 212.22 81.6094C213.173 79.7969 214.505 78.4766 216.22 77.6484C217.935 76.8242 220.002 76.4102 222.42 76.4102C224.513 76.4102 226.224 76.7031 227.548 77.2852C228.873 77.8711 229.88 78.8281 230.572 80.1562C231.138 81.2461 231.435 82.5742 231.466 84.1484C231.498 85.7187 231.361 87.5352 231.056 89.5898L230.388 94.125H218.841L217.763 101.441C217.611 102.488 217.521 103.355 217.502 104.039C217.482 104.727 217.873 105.066 218.681 105.066C219.365 105.066 219.884 104.766 220.236 104.16C220.587 103.555 220.845 102.688 221.013 101.562L221.619 97.4531H229.9L229.712 98.7227L229.709 98.7148ZM222.388 88.5L222.744 86.082C222.814 85.5977 222.865 85.2578 222.896 85.0547C223.076 83.8438 223.115 83.0195 223.021 82.5742C222.923 82.1328 222.615 81.9102 222.091 81.9102C221.486 81.9102 221.068 82.0898 220.834 82.4531C220.599 82.8164 220.412 83.4609 220.275 84.3867L219.67 88.4961H222.388V88.5Z" fill="#EA1C3D"/>
<path d="M249.871 87.832H249.207C246.867 87.832 245.309 88.5781 244.523 90.0703C244.023 91 243.5 93.3164 242.957 97.0234L240.973 110.504H231.602L236.621 76.4063H245.992L244.91 80.8789C245.875 79.2656 246.789 78.0977 247.664 77.3711C248.762 76.4844 250.09 75.9609 251.645 75.8008L249.871 87.832Z" fill="#EA1C3D"/>
<path d="M-32.9531 61.1172H333.035" stroke="#EA1C3D" stroke-miterlimit="10"/>
<path d="M104.008 0.0351562C101.395 14.5742 99.832 28.6367 97.4883 43.4805C92.4102 78.2461 88.1133 111.84 83.1953 145.73" stroke="#EA1C3D" stroke-miterlimit="10"/>
<path d="M174.895 44.6953C173.332 56.1133 171.715 67.5195 170.07 78.9258C168.422 90.375 166.746 101.82 165.062 113.262C164.121 119.676 163.176 126.09 162.238 132.504" stroke="#EA1C3D" stroke-miterlimit="10"/>
<path d="M258.988 27.2266C253.313 64.707 247.453 102.598 241.938 140.145" stroke="#EA1C3D" stroke-miterlimit="10"/>
<path d="M72.293 110.578H633.551" stroke="#EA1C3D" stroke-miterlimit="10"/>
<path d="M-77 68.7305H286.902" stroke="#EA1C3D" stroke-miterlimit="10"/>
<path d="M38.4883 115.402H673" stroke="#EA1C3D" stroke-miterlimit="10"/>
<path d="M283.457 95.4961C283.027 98.4141 282.496 100.75 281.867 102.512C281.238 104.273 280.273 105.801 278.968 107.094C276.574 109.5 273.343 110.703 269.269 110.703C264.964 110.703 261.828 109.836 259.863 108.098C257.898 106.363 257.164 103.781 257.671 100.355L258.312 94.5898L258.558 92.9219H269.253L268.148 100.422C267.863 102.367 268.32 103.34 269.523 103.34C270.449 103.34 271.085 102.879 271.429 101.949C271.773 101.023 272.132 99.2891 272.507 96.7422L273 93.4102C273.41 90.6328 273.183 88.875 272.32 88.1328C271.66 87.5781 270.058 87.3008 267.511 87.3008L268.535 80.3555H269.16C271.753 80.3555 273.398 80.1016 274.097 79.5898C274.796 79.082 275.324 77.6211 275.679 75.2148L276.078 72.5078C276.289 71.0742 276.355 70.1484 276.277 69.7305C276.121 68.8984 275.628 68.4805 274.793 68.4805C273.496 68.4805 272.707 69.4297 272.429 71.3281L271.828 75.4258H261.132L261.531 72.7188C262.187 68.2734 263.546 65.2305 265.621 63.5859C267.691 61.9453 270.996 61.1211 275.531 61.1211C279.789 61.1211 282.8 62.1289 284.566 64.1406C286.328 66.1562 286.886 69.3594 286.238 73.7578C285.835 76.4883 285.093 78.5508 284.007 79.9375C283.261 80.9102 282.085 81.8359 280.472 82.7148C282.472 83.5938 283.625 84.8789 283.933 86.5703C284.242 88.2617 284.078 91.2344 283.453 95.4961H283.457Z" fill="#EA1C3D"/>
</svg>
