<svg viewBox="0 0 375 162" fill="none" xmlns="http://www.w3.org/2000/svg">
<path d="M114.878 95.4531C114.807 95.9375 114.753 96.3008 114.717 96.543C114.659 96.9453 114.612 97.25 114.585 97.4492C114.253 99.707 113.831 101.48 113.319 102.77C111.413 108.051 107.112 110.691 100.424 110.691C98.0065 110.691 96.0963 110.531 94.6901 110.207C93.2877 109.887 92.1041 109.16 91.1432 108.031C89.9674 106.699 89.3385 105.168 89.2487 103.437C89.1588 101.703 89.3698 99.125 89.8737 95.6992L92.0924 80.6445C92.6979 76.5352 94.2213 73.5195 96.6588 71.6055C99.0963 69.6914 102.374 68.7344 106.483 68.7344C108.94 68.7344 110.866 68.9453 112.253 69.3672C113.639 69.7891 114.788 70.6172 115.698 71.8477C116.604 73.0781 117.112 74.6992 117.217 76.7148C117.284 78.1641 117.116 80.2812 116.706 83.0625L116.385 85.2383H106.108L106.909 79.7969C106.975 79.3555 107.026 79.0117 107.061 78.7695C107.241 77.5586 107.323 76.8555 107.311 76.6523C107.256 75.6445 106.749 75.1406 105.78 75.1406C104.409 75.1406 103.596 76.0078 103.342 77.7422L99.8971 101.141C99.5807 103.277 100.089 104.344 101.421 104.344C102.268 104.344 102.842 104 103.143 103.316C103.444 102.633 103.753 101.242 104.061 99.1445L104.835 93.8828H115.112L114.881 95.4531H114.878Z" fill="#EA1C3D"/>
<path d="M136.664 110.504H127.293L130.828 86.5039C131.043 85.0547 131.168 83.9258 131.207 83.1172C131.246 82.3125 130.879 81.9062 130.117 81.9062C129.512 81.9062 129.062 82.2188 128.77 82.8438C128.477 83.4688 128.215 84.5664 127.98 86.1367L124.395 110.5H115.082L121.207 68.9062H130.52L129.148 78.2188C130.063 77.4922 130.938 77.0078 131.781 76.7695C132.621 76.5273 133.688 76.4063 134.98 76.4063C136.352 76.4063 137.52 76.6172 138.484 77.043C139.449 77.4688 140.105 78.1406 140.453 79.0664C140.711 79.793 140.793 80.7891 140.707 82.0586C140.621 83.3281 140.43 84.9727 140.133 86.9844L136.668 110.504H136.664Z" fill="#EA1C3D"/>
<path d="M160.846 110.504H151.717L152.163 107.48C151.385 108.648 150.573 109.457 149.721 109.898C148.87 110.344 147.698 110.562 146.209 110.562C144.92 110.562 143.827 110.391 142.928 110.047C142.03 109.703 141.436 109.172 141.139 108.445C140.842 107.719 140.682 106.883 140.663 105.938C140.639 104.992 140.709 103.973 140.87 102.883L141.28 100.102C141.643 97.6445 142.182 95.9609 142.901 95.0547C143.62 94.1484 145.178 93.1914 147.584 92.1836L152.612 90.0664C153.389 89.7031 153.948 89.2695 154.284 88.7656C154.62 88.2617 154.881 87.3867 155.065 86.1367C155.487 83.2773 155.213 81.8437 154.245 81.8437C153.76 81.8437 153.354 82.0039 153.026 82.3281C152.698 82.6523 152.448 83.375 152.284 84.5039L151.706 88.4336H142.999L143.159 87.3438C143.479 85.168 143.905 83.4336 144.44 82.1445C144.971 80.8555 145.905 79.6445 147.241 78.5156C148.252 77.668 149.346 77.1445 150.526 76.9453C151.706 76.7422 153.28 76.6445 155.256 76.6445C157.635 76.6445 159.51 76.8477 160.881 77.25C162.252 77.6523 163.229 78.418 163.807 79.5469C164.385 80.6758 164.612 82.2266 164.483 84.2031C164.354 86.1797 163.983 89.2422 163.37 93.3945L160.85 110.504H160.846ZM152.588 102.949L153.862 94.3047C152.413 95.3945 151.506 96.1992 151.147 96.7227C150.577 97.5703 150.155 98.9414 149.877 100.832C149.764 101.598 149.655 102.344 149.549 103.07C149.475 104.398 149.92 105.066 150.889 105.066C151.858 105.066 152.385 104.363 152.592 102.949H152.588Z" fill="#EA1C3D"/>
<path d="M187.582 100.168C187.047 103.797 186.379 106.297 185.57 107.664C184.387 109.68 182.406 110.687 179.625 110.687C178.336 110.687 177.281 110.457 176.465 109.992C175.645 109.531 174.918 108.715 174.285 107.543L173.129 115.402H163.816L169.559 76.4063H179.109L178.422 79.4297C179.352 78.3008 180.348 77.5039 181.402 77.043C182.457 76.582 183.629 76.3477 184.922 76.3477C186.051 76.3477 187.023 76.5195 187.84 76.8594C188.656 77.2031 189.258 77.7773 189.641 78.582C190.023 79.3867 190.207 80.2852 190.184 81.2734C190.16 82.2617 190 83.7617 189.703 85.7773L187.586 100.168H187.582ZM177.801 102.523L180.187 86.3203C180.316 85.4336 180.41 84.8086 180.465 84.4453C180.59 83.5977 180.645 82.9531 180.629 82.5117C180.613 82.0664 180.262 81.8477 179.578 81.8477C178.57 81.8477 177.926 82.8164 177.641 84.75L175.031 102.465C174.777 104.199 175.152 105.066 176.16 105.066C176.684 105.066 177.059 104.855 177.281 104.43C177.504 104.008 177.68 103.371 177.805 102.523H177.801Z" fill="#EA1C3D"/>
<path d="M203.588 110.504H199.838C197.58 110.504 196.064 110.402 195.287 110.203C193.849 109.84 192.869 108.973 192.346 107.602C192.174 107.117 192.146 106.223 192.26 104.91C192.373 103.602 192.576 101.938 192.873 99.9219L195.42 82.6328H193.424L194.217 77.25H196.213L197.013 71.8086H206.443L205.642 77.25H208.123L207.33 82.6328H204.849L202.17 100.832C201.849 103.008 201.763 104.258 201.92 104.582C202.072 104.906 202.896 105.066 204.388 105.066L203.588 110.508V110.504Z" fill="#EA1C3D"/>
<path d="M229.207 98.7148C229.136 99.1992 229.082 99.5625 229.046 99.8047C228.808 101.418 228.519 102.695 228.179 103.645C227.839 104.594 227.175 105.668 226.191 106.879C225.05 108.328 223.847 109.309 222.586 109.812C221.324 110.316 219.644 110.566 217.546 110.566C214.804 110.566 212.636 110.094 211.046 109.145C209.453 108.199 208.468 106.676 208.089 104.582C207.902 103.656 207.89 102.508 208.054 101.137C208.214 99.7656 208.343 98.7578 208.441 98.1133L209.902 88.1992C210.109 86.7891 210.339 85.5781 210.586 84.5703C210.836 83.5625 211.211 82.5742 211.718 81.6094C212.671 79.7969 214.004 78.4766 215.718 77.6484C217.433 76.8242 219.5 76.4102 221.918 76.4102C224.011 76.4102 225.722 76.7031 227.046 77.2852C228.371 77.8711 229.379 78.8281 230.07 80.1562C230.636 81.2461 230.933 82.5742 230.964 84.1484C230.996 85.7187 230.859 87.5352 230.554 89.5898L229.886 94.125H218.339L217.261 101.441C217.109 102.488 217.019 103.355 217 104.039C216.98 104.727 217.371 105.066 218.179 105.066C218.863 105.066 219.382 104.766 219.734 104.16C220.086 103.555 220.343 102.688 220.511 101.562L221.117 97.4531H229.398L229.211 98.7227L229.207 98.7148ZM221.886 88.5L222.242 86.082C222.312 85.5977 222.363 85.2578 222.394 85.0547C222.574 83.8438 222.613 83.0195 222.519 82.5742C222.421 82.1328 222.113 81.9102 221.589 81.9102C220.984 81.9102 220.566 82.0898 220.332 82.4531C220.097 82.8164 219.91 83.4609 219.773 84.3867L219.168 88.4961H221.886V88.5Z" fill="#EA1C3D"/>
<path d="M249.371 87.832H248.707C246.367 87.832 244.809 88.5781 244.023 90.0703C243.523 91 243 93.3164 242.457 97.0234L240.473 110.504H231.102L236.121 76.4063H245.492L244.41 80.8789C245.375 79.2656 246.289 78.0977 247.164 77.3711C248.262 76.4844 249.59 75.9609 251.145 75.8008L249.371 87.832Z" fill="#EA1C3D"/>
<path d="M274.789 110.504H262.516L267.063 79.6367C267.324 77.8672 267.137 76.6094 266.504 75.8672C265.871 75.125 264.5 74.7539 262.398 74.7539H260.605L261.449 69.0117C264.262 68.4375 266.773 67.457 268.988 66.0703C270.887 64.875 272.828 63.2227 274.816 61.1172H282.066L274.793 110.504H274.789Z" fill="#EA1C3D"/>
<path d="M-33.4531 61.1172H332.535" stroke="#EA1C3D" stroke-width="0.5" stroke-miterlimit="10"/>
<path d="M103.508 0.0351562C100.895 14.5742 99.332 28.6367 96.9883 43.4805C91.9102 78.2461 87.6133 111.84 82.6953 145.73" stroke="#EA1C3D" stroke-width="0.5" stroke-miterlimit="10"/>
<path d="M174.395 44.6953C172.832 56.1133 171.215 67.5195 169.57 78.9258C167.922 90.375 166.246 101.82 164.562 113.262C163.621 119.676 162.676 126.09 161.738 132.504" stroke="#EA1C3D" stroke-width="0.5" stroke-miterlimit="10"/>
<path d="M258.488 27.2266C252.813 64.707 246.953 102.598 241.438 140.145" stroke="#EA1C3D" stroke-width="0.5" stroke-miterlimit="10"/>
<path d="M71.793 110.578H633.051" stroke="#EA1C3D" stroke-width="0.5" stroke-miterlimit="10"/>
<path d="M-77.5 68.7305H286.402" stroke="#EA1C3D" stroke-width="0.5" stroke-miterlimit="10"/>
<path d="M37.9883 115.402H672.5" stroke="#EA1C3D" stroke-width="0.5" stroke-miterlimit="10"/>
</svg>
