<svg viewBox="0 0 375 162" fill="none" xmlns="http://www.w3.org/2000/svg">
<path d="M114.872 95.4531C114.801 95.9375 114.747 96.3008 114.712 96.543C114.653 96.9453 114.606 97.25 114.579 97.4492C114.247 99.707 113.825 101.48 113.313 102.77C111.407 108.051 107.106 110.691 100.419 110.691C98.0006 110.691 96.0905 110.531 94.6842 110.207C93.2819 109.887 92.0983 109.16 91.1373 108.031C89.9616 106.699 89.3327 105.168 89.2428 103.437C89.153 101.703 89.3639 99.125 89.8678 95.6992L92.0866 80.6445C92.692 76.5352 94.2155 73.5195 96.653 71.6055C99.0905 69.6914 102.368 68.7344 106.477 68.7344C108.934 68.7344 110.86 68.9453 112.247 69.3672C113.633 69.7891 114.782 70.6172 115.692 71.8477C116.598 73.0781 117.106 74.6992 117.212 76.7148C117.278 78.1641 117.11 80.2812 116.7 83.0625L116.38 85.2383H106.102L106.903 79.7969C106.969 79.3555 107.02 79.0117 107.055 78.7695C107.235 77.5586 107.317 76.8555 107.305 76.6523C107.251 75.6445 106.743 75.1406 105.774 75.1406C104.403 75.1406 103.59 76.0078 103.337 77.7422L99.8913 101.141C99.5748 103.277 100.083 104.344 101.415 104.344C102.262 104.344 102.837 104 103.137 103.316C103.438 102.633 103.747 101.242 104.055 99.1445L104.829 93.8828H115.106L114.876 95.4531H114.872Z" fill="#EA1C3D"/>
<path d="M136.656 110.504H127.285L130.82 86.5039C131.035 85.0547 131.16 83.9258 131.199 83.1172C131.238 82.3125 130.871 81.9062 130.109 81.9062C129.504 81.9062 129.055 82.2188 128.762 82.8438C128.469 83.4688 128.207 84.5664 127.973 86.1367L124.387 110.5H115.074L121.199 68.9062H130.512L129.141 78.2188C130.055 77.4922 130.93 77.0078 131.773 76.7695C132.613 76.5273 133.68 76.4063 134.973 76.4063C136.344 76.4063 137.512 76.6172 138.477 77.043C139.441 77.4688 140.098 78.1406 140.445 79.0664C140.703 79.793 140.785 80.7891 140.699 82.0586C140.613 83.3281 140.422 84.9727 140.125 86.9844L136.66 110.504H136.656Z" fill="#EA1C3D"/>
<path d="M160.84 110.504H151.711L152.157 107.48C151.379 108.648 150.567 109.457 149.715 109.898C148.864 110.344 147.692 110.562 146.204 110.562C144.915 110.562 143.821 110.391 142.922 110.047C142.024 109.703 141.43 109.172 141.133 108.445C140.836 107.719 140.676 106.883 140.657 105.938C140.633 104.992 140.704 103.973 140.864 102.883L141.274 100.102C141.637 97.6445 142.176 95.9609 142.895 95.0547C143.614 94.1484 145.172 93.1914 147.579 92.1836L152.606 90.0664C153.383 89.7031 153.942 89.2695 154.278 88.7656C154.614 88.2617 154.875 87.3867 155.059 86.1367C155.481 83.2773 155.208 81.8437 154.239 81.8437C153.754 81.8437 153.348 82.0039 153.02 82.3281C152.692 82.6523 152.442 83.375 152.278 84.5039L151.7 88.4336H142.993L143.153 87.3438C143.473 85.168 143.899 83.4336 144.434 82.1445C144.965 80.8555 145.899 79.6445 147.235 78.5156C148.247 77.668 149.34 77.1445 150.52 76.9453C151.7 76.7422 153.274 76.6445 155.25 76.6445C157.629 76.6445 159.504 76.8477 160.875 77.25C162.247 77.6523 163.223 78.418 163.801 79.5469C164.379 80.6758 164.606 82.2266 164.477 84.2031C164.348 86.1797 163.977 89.2422 163.364 93.3945L160.844 110.504H160.84ZM152.583 102.949L153.856 94.3047C152.407 95.3945 151.5 96.1992 151.141 96.7227C150.571 97.5703 150.149 98.9414 149.872 100.832C149.758 101.598 149.649 102.344 149.543 103.07C149.469 104.398 149.915 105.066 150.883 105.066C151.852 105.066 152.379 104.363 152.586 102.949H152.583Z" fill="#EA1C3D"/>
<path d="M187.574 100.168C187.039 103.797 186.371 106.297 185.563 107.664C184.379 109.68 182.398 110.687 179.617 110.687C178.328 110.687 177.273 110.457 176.457 109.992C175.637 109.531 174.91 108.715 174.277 107.543L173.121 115.402H163.809L169.551 76.4063H179.102L178.414 79.4297C179.344 78.3008 180.34 77.5039 181.395 77.043C182.449 76.582 183.621 76.3477 184.914 76.3477C186.043 76.3477 187.016 76.5195 187.832 76.8594C188.648 77.2031 189.25 77.7773 189.633 78.582C190.016 79.3867 190.199 80.2852 190.176 81.2734C190.152 82.2617 189.992 83.7617 189.695 85.7773L187.578 100.168H187.574ZM177.797 102.523L180.184 86.3203C180.313 85.4336 180.406 84.8086 180.461 84.4453C180.586 83.5977 180.641 82.9531 180.625 82.5117C180.609 82.0664 180.258 81.8477 179.574 81.8477C178.566 81.8477 177.922 82.8164 177.637 84.75L175.027 102.465C174.773 104.199 175.148 105.066 176.156 105.066C176.68 105.066 177.055 104.855 177.277 104.43C177.5 104.008 177.676 103.371 177.801 102.523H177.797Z" fill="#EA1C3D"/>
<path d="M203.586 110.504H199.836C197.578 110.504 196.062 110.402 195.285 110.203C193.847 109.84 192.867 108.973 192.344 107.602C192.172 107.117 192.144 106.223 192.258 104.91C192.371 103.602 192.574 101.938 192.871 99.9219L195.418 82.6328H193.422L194.215 77.25H196.211L197.012 71.8086H206.441L205.64 77.25H208.121L207.328 82.6328H204.848L202.168 100.832C201.847 103.008 201.762 104.258 201.918 104.582C202.07 104.906 202.894 105.066 204.387 105.066L203.586 110.508V110.504Z" fill="#EA1C3D"/>
<path d="M229.205 98.7148C229.134 99.1992 229.08 99.5625 229.045 99.8047C228.806 101.418 228.517 102.695 228.177 103.645C227.838 104.594 227.173 105.668 226.189 106.879C225.048 108.328 223.845 109.309 222.584 109.812C221.322 110.316 219.642 110.566 217.545 110.566C214.802 110.566 212.634 110.094 211.045 109.145C209.451 108.199 208.466 106.676 208.087 104.582C207.9 103.656 207.888 102.508 208.052 101.137C208.213 99.7656 208.341 98.7578 208.439 98.1133L209.9 88.1992C210.107 86.7891 210.337 85.5781 210.584 84.5703C210.834 83.5625 211.209 82.5742 211.716 81.6094C212.67 79.7969 214.002 78.4766 215.716 77.6484C217.431 76.8242 219.498 76.4102 221.916 76.4102C224.009 76.4102 225.72 76.7031 227.045 77.2852C228.369 77.8711 229.377 78.8281 230.068 80.1562C230.634 81.2461 230.931 82.5742 230.963 84.1484C230.994 85.7187 230.857 87.5352 230.552 89.5898L229.884 94.125H218.337L217.259 101.441C217.107 102.488 217.017 103.355 216.998 104.039C216.978 104.727 217.369 105.066 218.177 105.066C218.861 105.066 219.38 104.766 219.732 104.16C220.084 103.555 220.341 102.688 220.509 101.562L221.115 97.4531H229.396L229.209 98.7227L229.205 98.7148ZM221.88 88.5L222.236 86.082C222.306 85.5977 222.357 85.2578 222.388 85.0547C222.568 83.8438 222.607 83.0195 222.513 82.5742C222.416 82.1328 222.107 81.9102 221.584 81.9102C220.978 81.9102 220.56 82.0898 220.326 82.4531C220.091 82.8164 219.904 83.4609 219.767 84.3867L219.162 88.4961H221.88V88.5Z" fill="#EA1C3D"/>
<path d="M249.363 87.832H248.699C246.359 87.832 244.801 88.5781 244.016 90.0703C243.516 91 242.992 93.3164 242.449 97.0234L240.465 110.504H231.094L236.113 76.4063H245.484L244.402 80.8789C245.367 79.2656 246.281 78.0977 247.156 77.3711C248.254 76.4844 249.582 75.9609 251.137 75.8008L249.363 87.832Z" fill="#EA1C3D"/>
<path d="M-283.691 61.1172H332.527" stroke="#EA1C3D" stroke-miterlimit="10"/>
<path d="M103.5 0.0351562C100.887 14.5742 99.3242 28.6367 96.9805 43.4805C91.9024 78.2461 87.6055 111.84 82.6875 145.73" stroke="#EA1C3D" stroke-miterlimit="10"/>
<path d="M174.387 44.6953C172.824 56.1133 171.207 67.5195 169.562 78.9258C167.914 90.375 166.238 101.82 164.555 113.262C163.613 119.676 162.668 126.09 161.73 132.504" stroke="#EA1C3D" stroke-miterlimit="10"/>
<path d="M258.48 27.2266C252.805 64.707 246.945 102.598 241.43 140.145" stroke="#EA1C3D" stroke-miterlimit="10"/>
<path d="M71.7852 110.578H404.383" stroke="#EA1C3D" stroke-miterlimit="10"/>
<path d="M-317 68.7305H286.395" stroke="#EA1C3D" stroke-miterlimit="10"/>
<path d="M37.9805 115.402H433" stroke="#EA1C3D" stroke-miterlimit="10"/>
<path d="M284.816 73.7461C284.434 76.332 283.496 79.0391 282 81.8594C280.766 84.1641 278.766 87.1992 276.004 90.9609C273.238 94.7266 270.449 98.4883 267.637 102.25H279.562L278.336 110.574H254.348L255.367 103.66C259.66 97.5 262.59 93.2656 264.152 90.9609C266.004 88.2812 268.148 85.0586 270.586 81.293C272.187 78.707 273.238 76.8594 273.73 75.7539C274.223 74.6484 274.555 73.5078 274.727 72.332C275.094 69.8398 274.453 68.5938 272.809 68.5938C271.867 68.5938 271.164 69.0664 270.695 70.0039C270.227 70.9453 269.867 72.2617 269.621 73.9531L268.957 78.4688H259.078L259.316 76.8477C259.453 75.9062 259.602 74.9883 259.758 74.0977C259.914 73.2031 260.129 72.2891 260.41 71.3477C261.371 68.0078 262.992 65.4687 265.273 63.7266C267.551 61.9883 270.336 61.1172 273.629 61.1172C275.32 61.1172 276.801 61.293 278.066 61.6484C279.332 62 280.469 62.5781 281.48 63.3789C284.367 65.8242 285.48 69.2812 284.82 73.75L284.816 73.7461Z" fill="#EA1C3D"/>
</svg>
