<svg viewBox="0 0 375 162" fill="none" xmlns="http://www.w3.org/2000/svg">
<path d="M123.872 95.4531C123.801 95.9375 123.747 96.3008 123.712 96.543C123.653 96.9453 123.606 97.25 123.579 97.4492C123.247 99.707 122.825 101.48 122.313 102.77C120.407 108.051 116.106 110.691 109.419 110.691C107.001 110.691 105.09 110.531 103.684 110.207C102.282 109.887 101.098 109.16 100.137 108.031C98.9616 106.699 98.3327 105.168 98.2428 103.437C98.153 101.703 98.3639 99.125 98.8678 95.6992L101.087 80.6445C101.692 76.5352 103.215 73.5195 105.653 71.6055C108.09 69.6914 111.368 68.7344 115.477 68.7344C117.934 68.7344 119.86 68.9453 121.247 69.3672C122.633 69.7891 123.782 70.6172 124.692 71.8477C125.598 73.0781 126.106 74.6992 126.212 76.7148C126.278 78.1641 126.11 80.2812 125.7 83.0625L125.38 85.2383H115.102L115.903 79.7969C115.969 79.3555 116.02 79.0117 116.055 78.7695C116.235 77.5586 116.317 76.8555 116.305 76.6523C116.251 75.6445 115.743 75.1406 114.774 75.1406C113.403 75.1406 112.59 76.0078 112.337 77.7422L108.891 101.141C108.575 103.277 109.083 104.344 110.415 104.344C111.262 104.344 111.837 104 112.137 103.316C112.438 102.633 112.747 101.242 113.055 99.1445L113.829 93.8828H124.106L123.876 95.4531H123.872Z" fill="#EA1C3D"/>
<path d="M145.656 110.504H136.285L139.82 86.5039C140.035 85.0547 140.16 83.9258 140.199 83.1172C140.238 82.3125 139.871 81.9062 139.109 81.9062C138.504 81.9062 138.055 82.2188 137.762 82.8438C137.469 83.4688 137.207 84.5664 136.973 86.1367L133.387 110.5H124.074L130.199 68.9062H139.512L138.141 78.2188C139.055 77.4922 139.93 77.0078 140.773 76.7695C141.613 76.5273 142.68 76.4063 143.973 76.4063C145.344 76.4063 146.512 76.6172 147.477 77.043C148.441 77.4688 149.098 78.1406 149.445 79.0664C149.703 79.793 149.785 80.7891 149.699 82.0586C149.613 83.3281 149.422 84.9727 149.125 86.9844L145.66 110.504H145.656Z" fill="#EA1C3D"/>
<path d="M169.84 110.504H160.711L161.157 107.48C160.379 108.648 159.567 109.457 158.715 109.898C157.864 110.344 156.692 110.562 155.204 110.562C153.915 110.562 152.821 110.391 151.922 110.047C151.024 109.703 150.43 109.172 150.133 108.445C149.836 107.719 149.676 106.883 149.657 105.938C149.633 104.992 149.704 103.973 149.864 102.883L150.274 100.102C150.637 97.6445 151.176 95.9609 151.895 95.0547C152.614 94.1484 154.172 93.1914 156.579 92.1836L161.606 90.0664C162.383 89.7031 162.942 89.2695 163.278 88.7656C163.614 88.2617 163.875 87.3867 164.059 86.1367C164.481 83.2773 164.208 81.8437 163.239 81.8437C162.754 81.8437 162.348 82.0039 162.02 82.3281C161.692 82.6523 161.442 83.375 161.278 84.5039L160.7 88.4336H151.993L152.153 87.3438C152.473 85.168 152.899 83.4336 153.434 82.1445C153.965 80.8555 154.899 79.6445 156.235 78.5156C157.247 77.668 158.34 77.1445 159.52 76.9453C160.7 76.7422 162.274 76.6445 164.25 76.6445C166.629 76.6445 168.504 76.8477 169.875 77.25C171.247 77.6523 172.223 78.418 172.801 79.5469C173.379 80.6758 173.606 82.2266 173.477 84.2031C173.348 86.1797 172.977 89.2422 172.364 93.3945L169.844 110.504H169.84ZM161.583 102.949L162.856 94.3047C161.407 95.3945 160.5 96.1992 160.141 96.7227C159.571 97.5703 159.149 98.9414 158.872 100.832C158.758 101.598 158.649 102.344 158.543 103.07C158.469 104.398 158.915 105.066 159.883 105.066C160.852 105.066 161.379 104.363 161.586 102.949H161.583Z" fill="#EA1C3D"/>
<path d="M196.574 100.168C196.039 103.797 195.371 106.297 194.563 107.664C193.379 109.68 191.398 110.687 188.617 110.687C187.328 110.687 186.273 110.457 185.457 109.992C184.637 109.531 183.91 108.715 183.277 107.543L182.121 115.402H172.809L178.551 76.4063H188.102L187.414 79.4297C188.344 78.3008 189.34 77.5039 190.395 77.043C191.449 76.582 192.621 76.3477 193.914 76.3477C195.043 76.3477 196.016 76.5195 196.832 76.8594C197.648 77.2031 198.25 77.7773 198.633 78.582C199.016 79.3867 199.199 80.2852 199.176 81.2734C199.152 82.2617 198.992 83.7617 198.695 85.7773L196.578 100.168H196.574ZM186.797 102.523L189.184 86.3203C189.313 85.4336 189.406 84.8086 189.461 84.4453C189.586 83.5977 189.641 82.9531 189.625 82.5117C189.609 82.0664 189.258 81.8477 188.574 81.8477C187.566 81.8477 186.922 82.8164 186.637 84.75L184.027 102.465C183.773 104.199 184.148 105.066 185.156 105.066C185.68 105.066 186.055 104.855 186.277 104.43C186.5 104.008 186.676 103.371 186.801 102.523H186.797Z" fill="#EA1C3D"/>
<path d="M212.586 110.504H208.836C206.578 110.504 205.062 110.402 204.285 110.203C202.847 109.84 201.867 108.973 201.344 107.602C201.172 107.117 201.144 106.223 201.258 104.91C201.371 103.602 201.574 101.938 201.871 99.9219L204.418 82.6328H202.422L203.215 77.25H205.211L206.012 71.8086H215.441L214.64 77.25H217.121L216.328 82.6328H213.848L211.168 100.832C210.847 103.008 210.762 104.258 210.918 104.582C211.07 104.906 211.894 105.066 213.387 105.066L212.586 110.508V110.504Z" fill="#EA1C3D"/>
<path d="M238.205 98.7148C238.134 99.1992 238.08 99.5625 238.045 99.8047C237.806 101.418 237.517 102.695 237.177 103.645C236.838 104.594 236.173 105.668 235.189 106.879C234.048 108.328 232.845 109.309 231.584 109.812C230.322 110.316 228.642 110.566 226.545 110.566C223.802 110.566 221.634 110.094 220.045 109.145C218.451 108.199 217.466 106.676 217.087 104.582C216.9 103.656 216.888 102.508 217.052 101.137C217.213 99.7656 217.341 98.7578 217.439 98.1133L218.9 88.1992C219.107 86.7891 219.337 85.5781 219.584 84.5703C219.834 83.5625 220.209 82.5742 220.716 81.6094C221.67 79.7969 223.002 78.4766 224.716 77.6484C226.431 76.8242 228.498 76.4102 230.916 76.4102C233.009 76.4102 234.72 76.7031 236.045 77.2852C237.369 77.8711 238.377 78.8281 239.068 80.1562C239.634 81.2461 239.931 82.5742 239.963 84.1484C239.994 85.7187 239.857 87.5352 239.552 89.5898L238.884 94.125H227.337L226.259 101.441C226.107 102.488 226.017 103.355 225.998 104.039C225.978 104.727 226.369 105.066 227.177 105.066C227.861 105.066 228.38 104.766 228.732 104.16C229.084 103.555 229.341 102.688 229.509 101.562L230.115 97.4531H238.396L238.209 98.7227L238.205 98.7148ZM230.88 88.5L231.236 86.082C231.306 85.5977 231.357 85.2578 231.388 85.0547C231.568 83.8438 231.607 83.0195 231.513 82.5742C231.416 82.1328 231.107 81.9102 230.584 81.9102C229.978 81.9102 229.56 82.0898 229.326 82.4531C229.091 82.8164 228.904 83.4609 228.767 84.3867L228.162 88.4961H230.88V88.5Z" fill="#EA1C3D"/>
<path d="M258.363 87.832H257.699C255.359 87.832 253.801 88.5781 253.016 90.0703C252.516 91 251.992 93.3164 251.449 97.0234L249.465 110.504H240.094L245.113 76.4063H254.484L253.402 80.8789C254.367 79.2656 255.281 78.0977 256.156 77.3711C257.254 76.4844 258.582 75.9609 260.137 75.8008L258.363 87.832Z" fill="#EA1C3D"/>
<path d="M-274.691 61.1172H341.527" stroke="#EA1C3D" stroke-miterlimit="10"/>
<path d="M112.5 0.0351562C109.887 14.5742 108.324 28.6367 105.98 43.4805C100.902 78.2461 96.6055 111.84 91.6875 145.73" stroke="#EA1C3D" stroke-miterlimit="10"/>
<path d="M183.387 44.6953C181.824 56.1133 180.207 67.5195 178.562 78.9258C176.914 90.375 175.238 101.82 173.555 113.262C172.613 119.676 171.668 126.09 170.73 132.504" stroke="#EA1C3D" stroke-miterlimit="10"/>
<path d="M267.48 27.2266C261.805 64.707 255.945 102.598 250.43 140.145" stroke="#EA1C3D" stroke-miterlimit="10"/>
<path d="M80.7852 110.578H413.383" stroke="#EA1C3D" stroke-miterlimit="10"/>
<path d="M-308 68.7305H295.395" stroke="#EA1C3D" stroke-miterlimit="10"/>
<path d="M46.9805 115.402H442" stroke="#EA1C3D" stroke-miterlimit="10"/>
<path d="M291.164 101.855H288.004L286.723 110.543H275.668L276.945 101.855H263.738L264.988 93.3867L279.355 61.1562H294L289.254 93.3867H292.414L291.168 101.855H291.164ZM278.199 93.3867L281.297 72.4297L273.23 93.3828H278.195L278.199 93.3867Z" fill="#EA1C3D"/>
</svg>
