<svg viewBox="0 0 1918 415" fill="none" xmlns="http://www.w3.org/2000/svg">
<path d="M492.49 244.36C492.31 245.6 492.17 246.53 492.08 247.15C491.93 248.18 491.81 248.96 491.74 249.47C490.89 255.25 489.81 259.79 488.5 263.09C483.62 276.61 472.61 283.37 455.49 283.37C449.3 283.37 444.41 282.96 440.81 282.13C437.22 281.31 434.19 279.45 431.73 276.56C428.72 273.15 427.11 269.23 426.88 264.8C426.65 260.36 427.19 253.76 428.48 244.99L434.16 206.45C435.71 195.93 439.61 188.21 445.85 183.31C452.09 178.41 460.48 175.96 471 175.96C477.29 175.96 482.22 176.5 485.77 177.58C489.32 178.66 492.26 180.78 494.59 183.93C496.91 187.08 498.21 191.23 498.48 196.39C498.65 200.1 498.22 205.52 497.17 212.64L496.35 218.21H470.04L472.09 204.28C472.26 203.15 472.39 202.27 472.48 201.65C472.94 198.55 473.15 196.75 473.12 196.23C472.98 193.65 471.68 192.36 469.2 192.36C465.69 192.36 463.61 194.58 462.96 199.02L454.14 258.92C453.33 264.39 454.63 267.12 458.04 267.12C460.21 267.12 461.68 266.24 462.45 264.49C463.22 262.74 464.01 259.18 464.8 253.81L466.78 240.34H493.09L492.5 244.36H492.49Z" fill="#EA1C3D"/>
<path d="M548.26 282.89H524.27L533.32 221.45C533.87 217.74 534.19 214.85 534.29 212.78C534.39 210.72 533.45 209.68 531.5 209.68C529.95 209.68 528.8 210.48 528.05 212.08C527.3 213.68 526.63 216.49 526.03 220.51L516.85 282.88H493.01L508.69 176.4H532.53L529.02 200.24C531.36 198.38 533.6 197.14 535.76 196.53C537.91 195.91 540.64 195.6 543.95 195.6C547.46 195.6 550.45 196.14 552.92 197.23C555.39 198.32 557.07 200.04 557.96 202.41C558.62 204.27 558.83 206.82 558.61 210.07C558.39 213.32 557.9 217.53 557.14 222.68L548.27 282.89H548.26Z" fill="#EA1C3D"/>
<path d="M610.17 282.89H586.8L587.94 275.15C585.95 278.14 583.87 280.21 581.69 281.34C579.51 282.48 576.51 283.04 572.7 283.04C569.4 283.04 566.6 282.6 564.3 281.72C562 280.84 560.48 279.48 559.72 277.62C558.96 275.76 558.55 273.62 558.5 271.2C558.44 268.78 558.62 266.17 559.03 263.38L560.08 256.26C561.01 249.97 562.39 245.66 564.23 243.34C566.07 241.02 570.06 238.57 576.22 235.99L589.09 230.57C591.08 229.64 592.51 228.53 593.37 227.24C594.23 225.95 594.9 223.71 595.37 220.51C596.45 213.19 595.75 209.52 593.27 209.52C592.03 209.52 590.99 209.93 590.15 210.76C589.31 211.59 588.67 213.44 588.25 216.33L586.77 226.39H564.48L564.89 223.6C565.71 218.03 566.8 213.59 568.17 210.29C569.53 206.99 571.92 203.89 575.34 201C577.93 198.83 580.73 197.49 583.75 196.98C586.77 196.46 590.8 196.21 595.86 196.21C601.95 196.21 606.75 196.73 610.26 197.76C613.77 198.79 616.27 200.75 617.75 203.64C619.23 206.53 619.81 210.5 619.48 215.56C619.15 220.62 618.2 228.46 616.63 239.09L610.18 282.89H610.17ZM589.03 263.55L592.29 241.42C588.58 244.21 586.26 246.27 585.34 247.61C583.88 249.78 582.8 253.29 582.09 258.13C581.8 260.09 581.52 262 581.25 263.86C581.06 267.26 582.2 268.97 584.68 268.97C587.16 268.97 588.51 267.17 589.04 263.55H589.03Z" fill="#EA1C3D"/>
<path d="M678.609 256.43C677.239 265.72 675.53 272.12 673.46 275.62C670.43 280.78 665.36 283.36 658.24 283.36C654.94 283.36 652.24 282.77 650.15 281.58C648.05 280.4 646.19 278.31 644.57 275.31L641.609 295.43H617.77L632.469 195.6H656.919L655.159 203.34C657.539 200.45 660.089 198.41 662.789 197.23C665.489 196.05 668.489 195.45 671.799 195.45C674.689 195.45 677.18 195.89 679.27 196.76C681.36 197.64 682.9 199.11 683.88 201.17C684.86 203.23 685.33 205.53 685.27 208.06C685.21 210.59 684.799 214.43 684.039 219.59L678.62 256.43H678.609ZM653.57 262.46L659.68 220.98C660.01 218.71 660.25 217.11 660.39 216.18C660.71 214.01 660.85 212.36 660.81 211.23C660.77 210.09 659.87 209.53 658.12 209.53C655.54 209.53 653.889 212.01 653.159 216.96L646.479 262.31C645.829 266.75 646.79 268.97 649.37 268.97C650.71 268.97 651.67 268.43 652.24 267.34C652.81 266.26 653.26 264.63 653.58 262.46H653.57Z" fill="#EA1C3D"/>
<path d="M719.591 282.89H709.991C704.211 282.89 700.331 282.63 698.341 282.12C694.661 281.19 692.151 278.97 690.811 275.46C690.371 274.22 690.301 271.93 690.591 268.57C690.881 265.22 691.401 260.96 692.161 255.8L698.681 211.54H693.571L695.601 197.76H700.711L702.761 183.83H726.901L724.851 197.76H731.201L729.171 211.54H722.821L715.961 258.13C715.141 263.7 714.921 266.9 715.321 267.73C715.711 268.56 717.821 268.97 721.641 268.97L719.591 282.9V282.89Z" fill="#EA1C3D"/>
<path d="M785.171 252.71C784.991 253.95 784.851 254.88 784.761 255.5C784.151 259.63 783.411 262.9 782.541 265.33C781.671 267.76 779.971 270.51 777.451 273.61C774.531 277.32 771.451 279.83 768.221 281.12C764.991 282.41 760.691 283.05 755.321 283.05C748.301 283.05 742.751 281.84 738.681 279.41C734.601 276.99 732.081 273.09 731.111 267.73C730.631 265.36 730.601 262.42 731.021 258.91C731.431 255.4 731.761 252.82 732.011 251.17L735.751 225.79C736.281 222.18 736.871 219.08 737.501 216.5C738.141 213.92 739.101 211.39 740.401 208.92C742.841 204.28 746.251 200.9 750.641 198.78C755.031 196.67 760.321 195.61 766.511 195.61C771.871 195.61 776.251 196.36 779.641 197.85C783.031 199.35 785.611 201.8 787.381 205.2C788.831 207.99 789.591 211.39 789.671 215.42C789.751 219.44 789.401 224.09 788.621 229.35L786.911 240.96H757.351L754.591 259.69C754.201 262.37 753.971 264.59 753.921 266.34C753.871 268.1 754.871 268.97 756.941 268.97C758.691 268.97 760.021 268.2 760.921 266.65C761.821 265.1 762.481 262.88 762.911 260L764.461 249.48H785.661L785.181 252.73L785.171 252.71ZM766.431 226.56L767.341 220.37C767.521 219.13 767.651 218.26 767.731 217.74C768.191 214.64 768.291 212.53 768.051 211.39C767.801 210.26 767.011 209.69 765.671 209.69C764.121 209.69 763.051 210.15 762.451 211.08C761.851 212.01 761.371 213.66 761.021 216.03L759.471 226.55H766.431V226.56Z" fill="#EA1C3D"/>
<path d="M836.789 224.85H835.09C829.1 224.85 825.109 226.76 823.099 230.58C821.819 232.96 820.48 238.89 819.09 248.38L814.01 282.89H790.02L802.87 195.6H826.859L824.09 207.05C826.56 202.92 828.9 199.93 831.14 198.07C833.95 195.8 837.35 194.46 841.33 194.05L836.789 224.85Z" fill="#EA1C3D"/>
<path d="M901.861 282.89H870.441L882.081 203.87C882.751 199.34 882.271 196.12 880.651 194.22C879.031 192.32 875.521 191.37 870.141 191.37H865.551L867.711 176.67C874.911 175.2 881.341 172.69 887.011 169.14C891.871 166.08 896.841 161.85 901.931 156.46H920.491L901.871 282.89H901.861Z" fill="#EA1C3D"/>
<path d="M112.76 156.46H1049.69" stroke="#EA1C3D" stroke-miterlimit="10"/>
<path d="M463.38 0.0898438C456.69 37.3098 452.69 73.3098 446.69 111.31C433.69 200.31 422.69 286.31 410.1 373.07" stroke="#EA1C3D" stroke-miterlimit="10"/>
<path d="M644.849 114.42C640.849 143.65 636.709 172.85 632.499 202.05C628.279 231.36 623.989 260.66 619.679 289.95C617.269 306.37 614.849 322.79 612.449 339.21" stroke="#EA1C3D" stroke-miterlimit="10"/>
<path d="M860.13 69.7002C845.6 165.65 830.6 262.65 816.48 358.77" stroke="#EA1C3D" stroke-miterlimit="10"/>
<path d="M382.189 283.08H1819.01" stroke="#EA1C3D" stroke-miterlimit="10"/>
<path d="M0 175.95H931.59" stroke="#EA1C3D" stroke-miterlimit="10"/>
<path d="M295.65 295.43H1920" stroke="#EA1C3D" stroke-miterlimit="10"/>
</svg>
