<svg viewBox="0 0 1919 415" fill="none" xmlns="http://www.w3.org/2000/svg">
<path d="M1105.59 244.36C1105.41 245.6 1105.27 246.53 1105.18 247.15C1105.03 248.18 1104.91 248.96 1104.84 249.47C1103.99 255.25 1102.91 259.79 1101.6 263.09C1096.72 276.61 1085.71 283.37 1068.59 283.37C1062.4 283.37 1057.51 282.96 1053.91 282.13C1050.32 281.31 1047.29 279.45 1044.83 276.56C1041.82 273.15 1040.21 269.23 1039.98 264.8C1039.75 260.36 1040.29 253.76 1041.58 244.99L1047.26 206.45C1048.81 195.93 1052.71 188.21 1058.95 183.31C1065.19 178.41 1073.58 175.96 1084.1 175.96C1090.39 175.96 1095.32 176.5 1098.87 177.58C1102.42 178.66 1105.36 180.78 1107.69 183.93C1110.01 187.08 1111.31 191.23 1111.58 196.39C1111.75 200.1 1111.32 205.52 1110.27 212.64L1109.45 218.21H1083.14L1085.19 204.28C1085.36 203.15 1085.49 202.27 1085.58 201.65C1086.04 198.55 1086.25 196.75 1086.22 196.23C1086.08 193.65 1084.78 192.36 1082.3 192.36C1078.79 192.36 1076.71 194.58 1076.06 199.02L1067.24 258.92C1066.43 264.39 1067.73 267.12 1071.14 267.12C1073.31 267.12 1074.78 266.24 1075.55 264.49C1076.32 262.74 1077.11 259.18 1077.9 253.81L1079.88 240.34H1106.19L1105.6 244.36H1105.59Z" fill="#EA1C3D"/>
<path d="M1161.36 282.89H1137.37L1146.42 221.45C1146.97 217.74 1147.29 214.85 1147.39 212.78C1147.49 210.72 1146.55 209.68 1144.6 209.68C1143.05 209.68 1141.9 210.48 1141.15 212.08C1140.4 213.68 1139.73 216.49 1139.13 220.51L1129.95 282.88H1106.11L1121.79 176.4H1145.63L1142.12 200.24C1144.46 198.38 1146.7 197.14 1148.86 196.53C1151.01 195.91 1153.74 195.6 1157.05 195.6C1160.56 195.6 1163.55 196.14 1166.02 197.23C1168.49 198.32 1170.17 200.04 1171.06 202.41C1171.72 204.27 1171.93 206.82 1171.71 210.07C1171.49 213.32 1171 217.53 1170.24 222.68L1161.37 282.89H1161.36Z" fill="#EA1C3D"/>
<path d="M1223.27 282.89H1199.9L1201.04 275.15C1199.05 278.14 1196.97 280.21 1194.79 281.34C1192.61 282.48 1189.61 283.04 1185.8 283.04C1182.5 283.04 1179.7 282.6 1177.4 281.72C1175.1 280.84 1173.58 279.48 1172.82 277.62C1172.06 275.76 1171.65 273.62 1171.6 271.2C1171.54 268.78 1171.72 266.17 1172.13 263.38L1173.18 256.26C1174.11 249.97 1175.49 245.66 1177.33 243.34C1179.17 241.02 1183.16 238.57 1189.32 235.99L1202.19 230.57C1204.18 229.64 1205.61 228.53 1206.47 227.24C1207.33 225.95 1208 223.71 1208.47 220.51C1209.55 213.19 1208.85 209.52 1206.37 209.52C1205.13 209.52 1204.09 209.93 1203.25 210.76C1202.41 211.59 1201.77 213.44 1201.35 216.33L1199.87 226.39H1177.58L1177.99 223.6C1178.81 218.03 1179.9 213.59 1181.27 210.29C1182.63 206.99 1185.02 203.89 1188.44 201C1191.03 198.83 1193.83 197.49 1196.85 196.98C1199.87 196.46 1203.9 196.21 1208.96 196.21C1215.05 196.21 1219.85 196.73 1223.36 197.76C1226.87 198.79 1229.37 200.75 1230.85 203.64C1232.33 206.53 1232.91 210.5 1232.58 215.56C1232.25 220.62 1231.3 228.46 1229.73 239.09L1223.28 282.89H1223.27ZM1202.13 263.55L1205.39 241.42C1201.68 244.21 1199.36 246.27 1198.44 247.61C1196.98 249.78 1195.9 253.29 1195.19 258.13C1194.9 260.09 1194.62 262 1194.35 263.86C1194.16 267.26 1195.3 268.97 1197.78 268.97C1200.26 268.97 1201.61 267.17 1202.14 263.55H1202.13Z" fill="#EA1C3D"/>
<path d="M1291.71 256.43C1290.34 265.72 1288.63 272.12 1286.56 275.62C1283.53 280.78 1278.46 283.36 1271.34 283.36C1268.04 283.36 1265.34 282.77 1263.25 281.58C1261.15 280.4 1259.29 278.31 1257.67 275.31L1254.71 295.43H1230.87L1245.57 195.6H1270.02L1268.26 203.34C1270.64 200.45 1273.19 198.41 1275.89 197.23C1278.59 196.05 1281.59 195.45 1284.9 195.45C1287.79 195.45 1290.28 195.89 1292.37 196.76C1294.46 197.64 1296 199.11 1296.98 201.17C1297.96 203.23 1298.43 205.53 1298.37 208.06C1298.31 210.59 1297.9 214.43 1297.14 219.59L1291.72 256.43H1291.71ZM1266.68 262.46L1272.79 220.98C1273.12 218.71 1273.36 217.11 1273.5 216.18C1273.82 214.01 1273.96 212.36 1273.92 211.23C1273.88 210.09 1272.98 209.53 1271.23 209.53C1268.65 209.53 1267 212.01 1266.27 216.96L1259.59 262.31C1258.94 266.75 1259.9 268.97 1262.48 268.97C1263.82 268.97 1264.78 268.43 1265.35 267.34C1265.92 266.26 1266.37 264.63 1266.69 262.46H1266.68Z" fill="#EA1C3D"/>
<path d="M1332.7 282.89H1323.1C1317.32 282.89 1313.44 282.63 1311.45 282.12C1307.77 281.19 1305.26 278.97 1303.92 275.46C1303.48 274.22 1303.41 271.93 1303.7 268.57C1303.99 265.22 1304.51 260.96 1305.27 255.8L1311.79 211.54H1306.68L1308.71 197.76H1313.82L1315.87 183.83H1340.01L1337.96 197.76H1344.31L1342.28 211.54H1335.93L1329.07 258.13C1328.25 263.7 1328.03 266.9 1328.43 267.73C1328.82 268.56 1330.93 268.97 1334.75 268.97L1332.7 282.9V282.89Z" fill="#EA1C3D"/>
<path d="M1398.28 252.71C1398.1 253.95 1397.96 254.88 1397.87 255.5C1397.26 259.63 1396.52 262.9 1395.65 265.33C1394.78 267.76 1393.08 270.51 1390.56 273.61C1387.64 277.32 1384.56 279.83 1381.33 281.12C1378.1 282.41 1373.8 283.05 1368.43 283.05C1361.41 283.05 1355.86 281.84 1351.79 279.41C1347.71 276.99 1345.19 273.09 1344.22 267.73C1343.74 265.36 1343.71 262.42 1344.13 258.91C1344.54 255.4 1344.87 252.82 1345.12 251.17L1348.86 225.79C1349.39 222.18 1349.98 219.08 1350.61 216.5C1351.25 213.92 1352.21 211.39 1353.51 208.92C1355.95 204.28 1359.36 200.9 1363.75 198.78C1368.14 196.67 1373.43 195.61 1379.62 195.61C1384.98 195.61 1389.36 196.36 1392.75 197.85C1396.14 199.35 1398.72 201.8 1400.49 205.2C1401.94 207.99 1402.7 211.39 1402.78 215.42C1402.86 219.44 1402.51 224.09 1401.73 229.35L1400.02 240.96H1370.46L1367.7 259.69C1367.31 262.37 1367.08 264.59 1367.03 266.34C1366.98 268.1 1367.98 268.97 1370.05 268.97C1371.8 268.97 1373.13 268.2 1374.03 266.65C1374.93 265.1 1375.59 262.88 1376.02 260L1377.57 249.48H1398.77L1398.29 252.73L1398.28 252.71ZM1379.53 226.56L1380.44 220.37C1380.62 219.13 1380.75 218.26 1380.83 217.74C1381.29 214.64 1381.39 212.53 1381.15 211.39C1380.9 210.26 1380.11 209.69 1378.77 209.69C1377.22 209.69 1376.15 210.15 1375.55 211.08C1374.95 212.01 1374.47 213.66 1374.12 216.03L1372.57 226.55H1379.53V226.56Z" fill="#EA1C3D"/>
<path d="M1449.89 224.85H1448.19C1442.2 224.85 1438.21 226.76 1436.2 230.58C1434.92 232.96 1433.58 238.89 1432.19 248.38L1427.11 282.89H1403.12L1415.97 195.6H1439.96L1437.19 207.05C1439.66 202.92 1442 199.93 1444.24 198.07C1447.05 195.8 1450.45 194.46 1454.43 194.05L1449.89 224.85Z" fill="#EA1C3D"/>
<path d="M85.2695 156.46H1662.79" stroke="#EA1C3D" stroke-miterlimit="10"/>
<path d="M1076.48 0.0899963C1069.79 37.31 1065.79 73.31 1059.79 111.31C1046.79 200.31 1035.79 286.31 1023.2 373.07" stroke="#EA1C3D" stroke-miterlimit="10"/>
<path d="M1257.95 114.42C1253.95 143.65 1249.81 172.85 1245.6 202.05C1241.38 231.36 1237.09 260.66 1232.78 289.95C1230.37 306.37 1227.95 322.79 1225.55 339.21" stroke="#EA1C3D" stroke-miterlimit="10"/>
<path d="M1473.23 69.7C1458.7 165.65 1443.7 262.65 1429.58 358.77" stroke="#EA1C3D" stroke-miterlimit="10"/>
<path d="M995.289 283.08H1846.74" stroke="#EA1C3D" stroke-miterlimit="10"/>
<path d="M0 175.95H1544.69" stroke="#EA1C3D" stroke-miterlimit="10"/>
<path d="M908.75 295.43H1920" stroke="#EA1C3D" stroke-miterlimit="10"/>
<path d="M1533.86 260.75H1525.77L1522.49 282.99H1494.19L1497.46 260.75H1463.65L1466.85 239.07L1503.63 156.56H1541.12L1528.97 239.07H1537.06L1533.87 260.75H1533.86ZM1500.67 239.07L1508.6 185.42L1487.95 239.06H1500.66L1500.67 239.07Z" fill="#EA1C3D"/>
</svg>
