<svg viewBox="0 0 1919 415" fill="none" xmlns="http://www.w3.org/2000/svg">
<path d="M1104.59 244.36C1104.41 245.6 1104.27 246.53 1104.18 247.15C1104.03 248.18 1103.91 248.96 1103.84 249.47C1102.99 255.25 1101.91 259.79 1100.6 263.09C1095.72 276.61 1084.71 283.37 1067.59 283.37C1061.4 283.37 1056.51 282.96 1052.91 282.13C1049.32 281.31 1046.29 279.45 1043.83 276.56C1040.82 273.15 1039.21 269.23 1038.98 264.8C1038.75 260.36 1039.29 253.76 1040.58 244.99L1046.26 206.45C1047.81 195.93 1051.71 188.21 1057.95 183.31C1064.19 178.41 1072.58 175.96 1083.1 175.96C1089.39 175.96 1094.32 176.5 1097.87 177.58C1101.42 178.66 1104.36 180.78 1106.69 183.93C1109.01 187.08 1110.31 191.23 1110.58 196.39C1110.75 200.1 1110.32 205.52 1109.27 212.64L1108.45 218.21H1082.14L1084.19 204.28C1084.36 203.15 1084.49 202.27 1084.58 201.65C1085.04 198.55 1085.25 196.75 1085.22 196.23C1085.08 193.65 1083.78 192.36 1081.3 192.36C1077.79 192.36 1075.71 194.58 1075.06 199.02L1066.24 258.92C1065.43 264.39 1066.73 267.12 1070.14 267.12C1072.31 267.12 1073.78 266.24 1074.55 264.49C1075.32 262.74 1076.11 259.18 1076.9 253.81L1078.88 240.34H1105.19L1104.6 244.36H1104.59Z" fill="#EA1C3D"/>
<path d="M1160.36 282.89H1136.37L1145.42 221.45C1145.97 217.74 1146.29 214.85 1146.39 212.78C1146.49 210.72 1145.55 209.68 1143.6 209.68C1142.05 209.68 1140.9 210.48 1140.15 212.08C1139.4 213.68 1138.73 216.49 1138.13 220.51L1128.95 282.88H1105.11L1120.79 176.4H1144.63L1141.12 200.24C1143.46 198.38 1145.7 197.14 1147.86 196.53C1150.01 195.91 1152.74 195.6 1156.05 195.6C1159.56 195.6 1162.55 196.14 1165.02 197.23C1167.49 198.32 1169.17 200.04 1170.06 202.41C1170.72 204.27 1170.93 206.82 1170.71 210.07C1170.49 213.32 1170 217.53 1169.24 222.68L1160.37 282.89H1160.36Z" fill="#EA1C3D"/>
<path d="M1222.27 282.89H1198.9L1200.04 275.15C1198.05 278.14 1195.97 280.21 1193.79 281.34C1191.61 282.48 1188.61 283.04 1184.8 283.04C1181.5 283.04 1178.7 282.6 1176.4 281.72C1174.1 280.84 1172.58 279.48 1171.82 277.62C1171.06 275.76 1170.65 273.62 1170.6 271.2C1170.54 268.78 1170.72 266.17 1171.13 263.38L1172.18 256.26C1173.11 249.97 1174.49 245.66 1176.33 243.34C1178.17 241.02 1182.16 238.57 1188.32 235.99L1201.19 230.57C1203.18 229.64 1204.61 228.53 1205.47 227.24C1206.33 225.95 1207 223.71 1207.47 220.51C1208.55 213.19 1207.85 209.52 1205.37 209.52C1204.13 209.52 1203.09 209.93 1202.25 210.76C1201.41 211.59 1200.77 213.44 1200.35 216.33L1198.87 226.39H1176.58L1176.99 223.6C1177.81 218.03 1178.9 213.59 1180.27 210.29C1181.63 206.99 1184.02 203.89 1187.44 201C1190.03 198.83 1192.83 197.49 1195.85 196.98C1198.87 196.46 1202.9 196.21 1207.96 196.21C1214.05 196.21 1218.85 196.73 1222.36 197.76C1225.87 198.79 1228.37 200.75 1229.85 203.64C1231.33 206.53 1231.91 210.5 1231.58 215.56C1231.25 220.62 1230.3 228.46 1228.73 239.09L1222.28 282.89H1222.27ZM1201.13 263.55L1204.39 241.42C1200.68 244.21 1198.36 246.27 1197.44 247.61C1195.98 249.78 1194.9 253.29 1194.19 258.13C1193.9 260.09 1193.62 262 1193.35 263.86C1193.16 267.26 1194.3 268.97 1196.78 268.97C1199.26 268.97 1200.61 267.17 1201.14 263.55H1201.13Z" fill="#EA1C3D"/>
<path d="M1290.71 256.43C1289.34 265.72 1287.63 272.12 1285.56 275.62C1282.53 280.78 1277.46 283.36 1270.34 283.36C1267.04 283.36 1264.34 282.77 1262.25 281.58C1260.15 280.4 1258.29 278.31 1256.67 275.31L1253.71 295.43H1229.87L1244.57 195.6H1269.02L1267.26 203.34C1269.64 200.45 1272.19 198.41 1274.89 197.23C1277.59 196.05 1280.59 195.45 1283.9 195.45C1286.79 195.45 1289.28 195.89 1291.37 196.76C1293.46 197.64 1295 199.11 1295.98 201.17C1296.96 203.23 1297.43 205.53 1297.37 208.06C1297.31 210.59 1296.9 214.43 1296.14 219.59L1290.72 256.43H1290.71ZM1265.68 262.46L1271.79 220.98C1272.12 218.71 1272.36 217.11 1272.5 216.18C1272.82 214.01 1272.96 212.36 1272.92 211.23C1272.88 210.09 1271.98 209.53 1270.23 209.53C1267.65 209.53 1266 212.01 1265.27 216.96L1258.59 262.31C1257.94 266.75 1258.9 268.97 1261.48 268.97C1262.82 268.97 1263.78 268.43 1264.35 267.34C1264.92 266.26 1265.37 264.63 1265.69 262.46H1265.68Z" fill="#EA1C3D"/>
<path d="M1331.7 282.89H1322.1C1316.32 282.89 1312.44 282.63 1310.45 282.12C1306.77 281.19 1304.26 278.97 1302.92 275.46C1302.48 274.22 1302.41 271.93 1302.7 268.57C1302.99 265.22 1303.51 260.96 1304.27 255.8L1310.79 211.54H1305.68L1307.71 197.76H1312.82L1314.87 183.83H1339.01L1336.96 197.76H1343.31L1341.28 211.54H1334.93L1328.07 258.13C1327.25 263.7 1327.03 266.9 1327.43 267.73C1327.82 268.56 1329.93 268.97 1333.75 268.97L1331.7 282.9V282.89Z" fill="#EA1C3D"/>
<path d="M1397.28 252.71C1397.1 253.95 1396.96 254.88 1396.87 255.5C1396.26 259.63 1395.52 262.9 1394.65 265.33C1393.78 267.76 1392.08 270.51 1389.56 273.61C1386.64 277.32 1383.56 279.83 1380.33 281.12C1377.1 282.41 1372.8 283.05 1367.43 283.05C1360.41 283.05 1354.86 281.84 1350.79 279.41C1346.71 276.99 1344.19 273.09 1343.22 267.73C1342.74 265.36 1342.71 262.42 1343.13 258.91C1343.54 255.4 1343.87 252.82 1344.12 251.17L1347.86 225.79C1348.39 222.18 1348.98 219.08 1349.61 216.5C1350.25 213.92 1351.21 211.39 1352.51 208.92C1354.95 204.28 1358.36 200.9 1362.75 198.78C1367.14 196.67 1372.43 195.61 1378.62 195.61C1383.98 195.61 1388.36 196.36 1391.75 197.85C1395.14 199.35 1397.72 201.8 1399.49 205.2C1400.94 207.99 1401.7 211.39 1401.78 215.42C1401.86 219.44 1401.51 224.09 1400.73 229.35L1399.02 240.96H1369.46L1366.7 259.69C1366.31 262.37 1366.08 264.59 1366.03 266.34C1365.98 268.1 1366.98 268.97 1369.05 268.97C1370.8 268.97 1372.13 268.2 1373.03 266.65C1373.93 265.1 1374.59 262.88 1375.02 260L1376.57 249.48H1397.77L1397.29 252.73L1397.28 252.71ZM1378.53 226.56L1379.44 220.37C1379.62 219.13 1379.75 218.26 1379.83 217.74C1380.29 214.64 1380.39 212.53 1380.15 211.39C1379.9 210.26 1379.11 209.69 1377.77 209.69C1376.22 209.69 1375.15 210.15 1374.55 211.08C1373.95 212.01 1373.47 213.66 1373.12 216.03L1371.57 226.55H1378.53V226.56Z" fill="#EA1C3D"/>
<path d="M1448.89 224.85H1447.19C1441.2 224.85 1437.21 226.76 1435.2 230.58C1433.92 232.96 1432.58 238.89 1431.19 248.38L1426.11 282.89H1402.12L1414.97 195.6H1438.96L1436.19 207.05C1438.66 202.92 1441 199.93 1443.24 198.07C1446.05 195.8 1449.45 194.46 1453.43 194.05L1448.89 224.85Z" fill="#EA1C3D"/>
<path d="M84.2695 156.46H1661.79" stroke="#EA1C3D" stroke-miterlimit="10"/>
<path d="M1075.48 0.0900879C1068.79 37.3101 1064.79 73.3101 1058.79 111.31C1045.79 200.31 1034.79 286.31 1022.2 373.07" stroke="#EA1C3D" stroke-miterlimit="10"/>
<path d="M1256.95 114.42C1252.95 143.65 1248.81 172.85 1244.6 202.05C1240.38 231.36 1236.09 260.66 1231.78 289.95C1229.37 306.37 1226.95 322.79 1224.55 339.21" stroke="#EA1C3D" stroke-miterlimit="10"/>
<path d="M1472.23 69.7C1457.7 165.65 1442.7 262.65 1428.58 358.77" stroke="#EA1C3D" stroke-miterlimit="10"/>
<path d="M994.289 283.08H1845.74" stroke="#EA1C3D" stroke-miterlimit="10"/>
<path d="M-1 175.95H1543.69" stroke="#EA1C3D" stroke-miterlimit="10"/>
<path d="M907.75 295.43H1919" stroke="#EA1C3D" stroke-miterlimit="10"/>
<path d="M1539.65 188.79C1538.67 195.41 1536.27 202.34 1532.44 209.56C1529.28 215.46 1524.16 223.23 1517.09 232.86C1510.01 242.5 1502.87 252.13 1495.67 261.76H1526.2L1523.06 283.07H1461.65L1464.26 265.37C1475.25 249.6 1482.75 238.76 1486.75 232.86C1491.49 226 1496.98 217.75 1503.22 208.11C1507.32 201.49 1510.01 196.76 1511.27 193.93C1512.53 191.1 1513.38 188.18 1513.82 185.17C1514.76 178.79 1513.12 175.6 1508.91 175.6C1506.5 175.6 1504.7 176.81 1503.5 179.21C1502.3 181.62 1501.38 184.99 1500.75 189.32L1499.05 200.88H1473.76L1474.37 196.73C1474.72 194.32 1475.1 191.97 1475.5 189.69C1475.9 187.4 1476.45 185.06 1477.17 182.65C1479.63 174.1 1483.78 167.6 1489.62 163.14C1495.45 158.69 1502.58 156.46 1511.01 156.46C1515.34 156.46 1519.13 156.91 1522.37 157.82C1525.61 158.72 1528.52 160.2 1531.11 162.25C1538.5 168.51 1541.35 177.36 1539.66 188.8L1539.65 188.79Z" fill="#EA1C3D"/>
</svg>
