<svg width="1357" height="192" viewBox="0 0 1357 192" fill="none" xmlns="http://www.w3.org/2000/svg">
<g clip-path="url(#clip0_65_3957)">
<path d="M155.95 131.55V3.34705H56.7773L77.7242 31.9062H110.656H124.036V72.6804H110.656V43.1203L77.7242 43.0264V152.915H132.277L155.95 131.535V131.55ZM115.811 124.153H110.672V80.2972H124.052V116.755L115.811 124.153Z" fill="white"/>
<path d="M267.406 166.319V31.5777L244.783 3.34705H168.594V192L201.745 163.363V117.052H233.863V166.428L267.421 166.319H267.406ZM233.863 109.122H201.745V76.2933H233.863V109.122ZM233.863 44.0274V68.3324H201.745V32.3128H225.575L233.863 44.0274Z" fill="white"/>
<path d="M320.94 35.6129H387.29V117.302L368.614 134.053H320.94V89.5406H367.988L378.532 81.4389H320.94V46.5298H285.532V166.115H388.794L422.697 134.725V3.34705H259.697L285.532 35.5973" fill="white"/>
<path d="M552.669 165.756L476.669 56.086V165.756H438.551V3.25317H483.452L553.171 105.165V3.25317H591.289V165.756H552.669Z" fill="white"/>
<path d="M605.781 165.756V3.00293H644.651V165.756H605.781Z" fill="white"/>
<path d="M789.321 8.25808V42.307C768.249 37.3021 753.961 33.7986 729.88 33.7986C705.8 33.7986 699.283 39.5543 699.283 48.3128C699.283 53.568 702.792 58.3226 716.093 61.8417L758.99 73.1027C788.836 80.8602 800.633 96.1408 800.633 117.177C800.633 149.724 776.553 168.759 728.392 168.759C698.045 168.759 679.73 164.504 661.933 159.75V124.45C679.245 128.954 706.333 134.96 723.629 134.96C749.464 134.96 760.494 131.206 760.494 120.931C760.494 113.674 753.224 107.668 738.419 103.898L697.027 93.3881C672.696 87.132 659.41 70.6002 659.41 48.8133C659.41 16.2659 682.989 -0.015625 732.654 -0.015625C755.48 -0.015625 774.798 4.73902 789.337 8.24244L789.321 8.25808Z" fill="white"/>
<path d="M936.809 8.25808V42.307C915.737 37.3021 901.449 33.7986 877.369 33.7986C853.288 33.7986 846.771 39.5543 846.771 48.3128C846.771 53.568 850.28 58.3226 863.582 61.8417L906.478 73.1027C936.324 80.8602 948.121 96.1408 948.121 117.177C948.121 149.724 924.041 168.759 875.88 168.759C845.533 168.759 827.219 164.504 809.421 159.75V124.45C826.733 128.954 853.821 134.96 871.118 134.96C896.953 134.96 907.982 131.206 907.982 120.931C907.982 113.674 900.713 107.668 885.907 103.898L844.515 93.3881C820.184 87.132 806.898 70.6002 806.898 48.8133C806.898 16.2659 830.477 -0.015625 880.142 -0.015625C902.969 -0.015625 922.286 4.73902 936.825 8.24244L936.809 8.25808Z" fill="white"/>
<path d="M1067.27 136.211H990.265C987.257 145.971 984.249 155.996 981.241 165.756H940.867C958.43 108.418 981.492 47.5777 1002.56 3.00293H1056.74C1080.07 52.3324 1103.4 113.173 1119.69 165.756H1076.79L1067.27 136.211ZM1056.22 103.413C1048.2 80.6256 1039.66 57.8377 1028.38 31.7967C1018.36 54.8348 1009.32 79.1242 1001.04 103.413H1056.22Z" fill="white"/>
<path d="M1238.92 165.756L1162.92 56.086V165.756H1124.8V3.25317H1169.7L1239.42 105.165V3.25317H1277.54V165.756H1238.92Z" fill="white"/>
<path d="M55.9156 26.3226H28.8117V142.733H60.9291V165.975H0V3.2688H39.0422L55.9313 26.3226H55.9156Z" fill="white"/>
<path d="M1301.08 142.936H1328.19V26.5259H1296.07V3.28448H1357V166.006H1289.52L1301.08 142.952V142.936Z" fill="white"/>
</g>
<defs>
<clipPath id="clip0_65_3957">
<rect width="1357" height="192" fill="white"/>
</clipPath>
</defs>
</svg>
