<svg width="51" height="70" viewBox="0 0 51 70" fill="none" xmlns="http://www.w3.org/2000/svg">
<path d="M45.7338 0.741699V60.1213C45.7338 62.9735 45.7338 63.6449 43.3533 63.6449C43.0537 63.6449 41.6443 63.5894 39.8908 63.2509C39.3137 63.1399 38.7532 62.9734 38.2094 62.7626L38.043 62.7015C39.2027 63.9279 40.7731 65.2208 42.3212 65.9421C43.3311 66.4083 44.5464 66.7912 45.5285 66.8688C50.5448 66.8688 50.8999 64.6936 50.8999 59.4443V0.741699H45.7338Z" fill="#ff144c"/>
<path d="M23.9102 0.741877H15.9807C13.6668 7.01777 9.98231 13.7209 2.85742 17.9326C11.1809 17.3111 16.1694 12.1839 19.976 4.53183C23.5495 10.3915 28.5159 16.2679 35.4244 16.8339C29.7977 12.8664 25.9966 7.41729 23.9102 0.736328V0.741877Z" fill="#ff144c"/>
<path d="M23.3486 29.7739H14.5312V32.5484H23.3486V29.7739Z" fill="#ff144c"/>
<path d="M14.6388 24.042H26.0919V38.1031H14.4668V41.4047H31.0527V20.6682H14.6388V24.042Z" fill="#ff144c"/>
<path d="M11.1035 20.6682H6.34803C6.39797 27.1217 6.29254 36.1942 6.29254 38.3694C6.29254 46.3933 4.40589 59.6941 0 69.1496C14.2054 58.773 10.532 35.9279 11.1035 20.6682Z" fill="#ff144c"/>
<path d="M13.291 66.9525H18.2019V64.2502V60.8764V48.4522H26.1424V63.723H20.71V66.8748H31.0533V45.6777H13.291V66.9525Z" fill="#ff144c"/>
<path d="M26.5913 14.7812H14.55L14.4668 14.9033V17.5557H26.5913V14.7812Z" fill="#ff144c"/>
<path d="M40.6909 14.7812H37.1562V50.5277H40.6909V14.7812Z" fill="#ff144c"/>
</svg>
