<svg width="54" height="70" viewBox="0 0 54 70" fill="none" xmlns="http://www.w3.org/2000/svg">
<path d="M6.77772 40.3787C7.1384 48.8298 6.61679 61.1096 0.429688 69.1501C10.8673 63.762 11.8217 50.6276 11.5332 40.3787H6.77772Z" fill="#ff144c"/>
<path d="M22.4942 9.49317H28.3206V6.11384H19.5588V0.742432H14.4427V6.11384H5.98047V9.49317H22.3943H22.4942Z" fill="#ff144c"/>
<path d="M49.8921 26.5952H44.5762V67.3302H49.8921V26.5952Z" fill="#ff144c"/>
<path d="M14.5886 35.1794H4.40625V38.4755H14.5886V67.3302H19.3996V30.1687H14.5886V35.1794Z" fill="#ff144c"/>
<path d="M22.6691 38.4753H28.9561V35.1792H21.0488V38.4753H22.6691Z" fill="#ff144c"/>
<path d="M29.1791 25.2078H18.5972C22.8367 21.9505 24.629 16.7234 25.0063 11.3687H20.9334C20.8668 15.6802 19.7958 20.186 17.2766 24.2534C14.7574 20.186 13.6864 15.6747 13.6198 11.3687H9.54686C9.92419 16.7234 11.7165 21.9561 15.9559 25.2078H4.41406V27.9823H29.1847V25.2078H29.1791Z" fill="#ff144c"/>
<path d="M32.9186 17.3508V38.3758C32.9186 43.5641 32.1251 50.9443 30.3827 58.0747C26.221 52.6589 24.9447 46.494 25.1278 40.379H21.0549C20.9717 47.515 23.2856 55.1393 30.2884 58.4576C29.3451 62.2309 28.1409 65.9209 26.6316 69.156C29.6336 67.0918 31.9697 64.4116 33.357 61.3541C34.8441 58.0913 36.0704 53.8353 36.8639 49.8733C37.0248 49.0687 37.1414 48.2585 37.2301 47.4428L37.2634 47.1543C37.7795 42.6485 38.0403 38.115 38.0403 33.5815V9.49341H32.9241V17.3508H32.9186Z" fill="#ff144c"/>
<path d="M52.9676 0.781275L47.9735 0.742432C46.6196 4.85422 43.784 10.3699 40.1328 11.9958C46.0092 11.9958 51.7246 8.17806 52.9731 0.781275H52.9676Z" fill="#ff144c"/>
<path d="M53.2261 21.7507H40.125V24.5252H53.2261V21.7507Z" fill="#ff144c"/>
</svg>
