<svg width="57" height="70" viewBox="0 0 57 70" fill="none" xmlns="http://www.w3.org/2000/svg">
<path d="M42.2744 25.2075H33.457V27.982H42.2744V25.2075Z" fill="#ff144c"/>
<path d="M49.2007 43.5579H44.2344C44.6339 54.5004 46.8479 61.3146 56.259 65.9702C50.6545 59.1671 48.9677 51.332 49.2007 43.5579Z" fill="#ff144c"/>
<path d="M26.0841 43.5579C26.3338 49.7783 25.1685 56.093 21.2676 62.1247C28.4812 58.0185 30.6454 51.2654 30.9173 43.5579H26.0841Z" fill="#ff144c"/>
<path d="M31.1267 12.8667H26.0938V40.1566H31.1267V12.8667Z" fill="#ff144c"/>
<path d="M21.6278 4.23779H51.4812V0.864014H16.5061L16.5171 17.35V38.3751C16.5171 46.3989 14.636 59.6998 10.2246 69.1552C13.2266 67.091 15.5627 64.4109 16.95 61.3534C18.4371 58.0906 19.6634 53.8345 20.4569 49.8726C20.6178 49.068 20.7344 48.2578 20.8232 47.4421L20.8564 47.1536C21.3725 42.6478 21.6333 38.1143 21.6333 33.5808V4.23779H21.6278Z" fill="#ff144c"/>
<path d="M6.64019 35.5789C6.81776 45.2063 5.2474 58.3186 0.347656 69.1502C10.7797 61.7367 11.2015 47.3316 11.7231 35.5789H6.63464H6.64019Z" fill="#ff144c"/>
<path d="M49.1633 12.8667H33.4597V16.1683H44.2025V36.7994H33.4597V40.1732H35.2631V60.6822C35.2631 63.5344 35.2631 64.2058 32.8826 64.2058C32.583 64.2058 31.1735 64.1503 29.4201 63.8118C28.843 63.7009 28.2825 63.5344 27.7387 63.3235L27.5723 63.2625C28.732 64.4888 30.3024 65.7817 31.8505 66.5031C32.8604 66.9692 34.0757 67.3521 35.0578 67.4298C40.0741 67.4298 40.4292 65.2546 40.4292 60.0052V40.1732H49.1689V12.8667H49.1633Z" fill="#ff144c"/>
<path d="M40.4228 6.26929H35.3066V11.0913H40.4228V6.26929Z" fill="#ff144c"/>
<path d="M12.289 12.4173C12.289 6.87944 8.2383 1.49694 0.386503 0.320557L0.347656 5.02609C4.70915 6.30235 10.5689 8.97696 12.289 12.4173Z" fill="#ff144c"/>
<path d="M12.289 28.2655C12.289 22.7276 8.2383 17.3451 0.386503 16.1687L0.347656 20.8742C4.70915 22.1505 10.5689 24.8251 12.289 28.2655Z" fill="#ff144c"/>
</svg>
