<svg width="56" height="68" viewBox="0 0 56 68" fill="none" xmlns="http://www.w3.org/2000/svg">
<path d="M20.6848 37.3485H21.2619H25.7954V27.1218H20.6848V34.574H12.6L23.9476 9.59255H18.9147L13.0827 22.4273H9.42038L19.8802 0.864014H14.8473L3.03906 25.2018H8.07199H11.8231L6.30742 37.3485H8.43268H14.0482V67.2519H19.1644V37.3485H20.6848Z" fill="#ff144c"/>
<path d="M0.175781 64.3835C9.58684 59.7279 11.8009 52.9138 12.2004 41.9712H7.23406C7.46712 49.7453 5.78025 57.5805 0.175781 64.3835Z" fill="#ff144c"/>
<path d="M36.75 0.864014V4.16565H45.1623H50.2784V30.4955V60.8429H45.1623H36.75V64.2222H50.2784V67.3296H55.0394V0.864014H36.75Z" fill="#ff144c"/>
<path d="M40.8285 55.7762H44.0414V33.1641H47.8258V29.7848H44.0414V9.24805H40.8285V29.7848H36.75V33.1641H40.8285V55.7762Z" fill="#ff144c"/>
<path d="M29.2124 58.6843C27.2036 55.0442 26.1993 51.3208 25.7609 47.9415C25.4557 45.6054 25.5112 43.7465 25.5167 41.9708H20.6836C20.6836 42.8919 20.7224 43.8686 20.7224 43.8686C20.7612 45.0283 20.9055 46.6098 21.011 47.2035C21.5326 50.1167 22.3982 51.7259 23.7244 54.2174C24.812 56.2594 26.6987 58.1794 29.2068 59.8385V67.3241H34.1676V4.16565V0.864014H29.2013V58.6843H29.2124Z" fill="#ff144c"/>
</svg>
