<svg width="53" height="71" viewBox="0 0 53 71" fill="none" xmlns="http://www.w3.org/2000/svg">
<path d="M8.05213 16.3223C9.12863 14.8351 10.0775 13.0428 10.8488 11.2117H15.0716V20.9779H20.1878V11.2117H25.2484V7.83789H12.0363C12.1196 7.50495 12.1972 7.16646 12.2527 6.83352C12.2527 6.83352 12.7632 4.41417 12.7632 0.313477H7.7969C7.7969 0.396711 7.7969 2.83826 7.7969 2.92149C7.75251 5.00236 7.55273 7.2497 6.77587 10.1851C5.79925 13.8752 3.99584 17.9426 0.744141 21.6493C4.00694 20.2398 6.54281 18.4142 8.05213 16.3278V16.3223Z" fill="#ff144c"/>
<path d="M31.4473 70.2525H36.6633V26.8928V23.519H31.4473V70.2525Z" fill="#ff144c"/>
<path d="M39.3264 23.519V26.8928H46.9174V57.3567C46.9174 60.2089 46.9174 60.8803 44.5369 60.8803C44.2373 60.8803 42.8278 60.8248 41.0743 60.4863C40.4973 60.3753 39.9368 60.2089 39.393 59.998L39.2266 59.937C40.3863 61.1633 41.9566 62.4562 43.5048 63.1776C44.5147 63.6437 45.73 64.0266 46.7121 64.1042C51.7284 64.1042 52.0835 61.929 52.0835 56.6797V23.519H39.3264Z" fill="#ff144c"/>
<path d="M34.6322 16.3223C35.7087 14.8351 36.6576 13.0428 37.4289 11.2117H41.6517V20.9779H46.7678V11.2117H51.8285V7.83789H38.6164C38.6996 7.50495 38.7773 7.16646 38.8328 6.83352C38.8328 6.83352 39.3433 4.41417 39.3433 0.313477H34.3769C34.3769 0.396711 34.3769 2.83826 34.3769 2.92149C34.3326 5.00236 34.1328 7.2497 33.356 10.1851C32.3793 13.8752 30.5759 17.9426 27.3242 21.6493C30.587 20.2398 33.1229 18.4142 34.6322 16.3278V16.3223Z" fill="#ff144c"/>
<path d="M15.8041 66.2572C14.0451 66.5957 12.6412 66.6512 12.3415 66.6512C9.96104 66.6512 9.96102 65.9742 9.96102 63.1276V23.519H4.79492V62.4506C4.79492 67.7 5.15009 69.8752 10.1664 69.8752C11.1485 69.7975 12.3637 69.4146 13.3736 68.9485C14.9218 68.2271 16.4922 66.9287 17.6519 65.7079L17.4854 65.7689C16.9416 65.9742 16.3812 66.1407 15.8041 66.2572Z" fill="#ff144c"/>
<path d="M12.502 44.5219V47.8957H25.2535V23.519H12.502V26.8928H20.1873V33.7181H12.502V37.0974H20.1873V44.5219H12.502Z" fill="#ff144c"/>
<path d="M12.9665 53.3005C16.6177 55.6921 19.4532 63.8214 20.8072 69.8753L25.8013 69.8198C24.5528 58.9272 18.8373 53.3005 12.9609 53.3005H12.9665Z" fill="#ff144c"/>
</svg>
