<svg width="53" height="70" viewBox="0 0 53 70" fill="none" xmlns="http://www.w3.org/2000/svg">
<path d="M39.1027 13.841H52.0596V10.4672H38.5478L36.8942 0.445801H31.8613L33.5149 10.4672H11.4966L6.38044 10.4617C6.38044 15.6888 6.38044 8.95238 6.38044 13.8632C6.51362 28.4848 6.43592 41.6358 0.0878906 51.5852C12.9504 41.9077 11.1137 29.922 11.4966 15.4613C11.4966 14.7788 11.4966 14.2517 11.4966 13.8466H34.0698L38.8808 43.0286H38.9418C38.3592 43.8554 37.7266 44.6878 37.0441 45.5146C38.6422 44.7211 40.046 43.8998 41.2835 43.0286H52.0596V40.2541H44.4908C48.0588 36.3921 49.3572 31.4479 49.6236 24.2176H44.6573C44.7793 28.3793 44.1856 32.2414 42.754 35.9814L39.1083 13.8521L39.1027 13.841Z" fill="#ff144c"/>
<path d="M31.4004 20.5166H16.002V23.8904H31.4004V20.5166Z" fill="#ff144c"/>
<path d="M20.2081 29.3674H16.002V43.0179H20.2081V29.3674Z" fill="#ff144c"/>
<path d="M33.681 65.752H23.1047C20.7741 65.752 20.4189 65.752 20.4189 62.4503V50.1038C18.7598 50.1038 17.6555 50.0817 16.002 50.0706C16.0075 50.3314 16.0131 50.5977 16.0131 50.8974V62.1507C16.0131 68.3766 17.1284 69.0536 20.6742 69.0536H35.7119C38.3976 69.0536 42.5982 68.6763 42.5982 58.7769C42.5982 58.7769 40.3731 65.752 33.681 65.752Z" fill="#ff144c"/>
<path d="M22.3574 39.7218V43.0235H30.8917V29.3674H22.3574V32.7468H26.6912V39.7218H22.3574Z" fill="#ff144c"/>
<path d="M44.7631 8.25892L49.6185 8.22008C48.9526 1.90535 44.4302 0.0852817 39.2363 0.501455C43.1761 1.65009 44.5967 4.90734 44.7631 8.25892Z" fill="#ff144c"/>
<path d="M30.2037 59.1486L35.1978 59.1097C33.9492 51.713 28.2338 47.8953 22.3574 47.8953C26.0086 49.5156 28.8442 55.0368 30.1981 59.1486H30.2037Z" fill="#ff144c"/>
<path d="M0.482117 66.5178L5.47619 66.5733C6.83014 60.5138 9.66567 52.3846 13.3169 49.9985C7.44053 49.9985 1.72508 55.6252 0.476562 66.5178H0.482117Z" fill="#ff144c"/>
<path d="M39.2204 49.9985C42.8716 52.3901 45.7072 60.5194 47.0611 66.5733L52.0552 66.5178C50.8067 55.6252 45.0912 49.9985 39.2148 49.9985H39.2204Z" fill="#ff144c"/>
</svg>
