<svg width="49" height="73" viewBox="0 0 49 73" fill="none" xmlns="http://www.w3.org/2000/svg">
<path d="M4.54137 22.1704H0.462891V44.899H4.54137V22.1704Z" fill="#ff144c"/>
<path d="M15.1066 54.0488H25.0004V50.675H15.1066V44.8985H25.0004V22.1699H15.1066V16.9206H25.0004V13.6189H15.1066V5.59513L25.0004 3.95263V0.578857L0.551659 4.64071V8.01448L10.2402 6.40528V13.6189H0.462891V16.9206H10.2402V22.1755H6.54458V25.4771H10.2402V31.4811H6.54458V34.8549H10.2402V41.608H6.54458V44.9096H10.2402V50.6861L0.53503 50.614V53.9877L10.2402 54.0599V63.7761C6.95519 64.2755 3.66465 64.4476 0.462891 64.381V69.0643C12.1768 68.6315 20.8776 66.989 26.6651 57.7333C23.0084 60.1138 19.0964 61.7286 15.1066 62.7773V54.0654V54.0488ZM21.0995 25.466V41.5969H15.1066V34.8438H18.6524V31.47H15.1066V25.466H21.0995Z" fill="#ff144c"/>
<path d="M40.2255 13.6691H38.4165C38.4165 7.35988 38.4165 2.1383 38.4165 0.573486H33.3004C33.3004 1.05625 33.3004 6.97145 33.3004 13.6691H28.8279V16.9707H33.3004C33.3004 20.7551 33.3004 24.5451 33.3004 27.5471C33.4336 42.1686 33.7776 57.0343 27.0078 72.1497C39.8703 62.4723 38.0337 43.6058 38.4165 29.1452C38.4165 25.2331 38.4165 20.9826 38.4165 16.9707H43.7102V63.1271C43.7102 65.9792 43.7103 66.6507 41.3297 66.6507C41.0301 66.6507 39.6207 66.5952 37.8672 66.2567C37.2901 66.1457 36.7296 65.9793 36.1858 65.7684L36.0193 65.7074C37.1791 66.9337 38.7495 68.2266 40.2976 68.948C41.3076 69.4141 42.5227 69.797 43.5049 69.8746C48.5212 69.8746 48.8763 67.6994 48.8763 62.4501V13.6691H40.2255Z" fill="#ff144c"/>
</svg>
